<svg xmlns="http://www.w3.org/2000/svg" enable-background="new 0 0 1920 1080" viewBox="0 0 1920 1080" id="happy-business-woman"><path fill="#e4ffb0" d="M428.94,932.61c0,0,88.43-81.38-13.15-254.16s-83.52-337.23,83.11-363.69s264.98,24.56,357.57-90.16  s384.08-124.26,394.98,47.24c13.52,212.61,168.23,232.58,220.59,303.46c122.81,166.22-122.81,293.57,0,357.32H428.94z" opacity=".67"></path><path fill="#ffe5b8" d="M1281.51,782.77c0,0-31.47-9.68-45.95-36.71c-14.48-27.03-47.71-179.16-90.83-203.75   c0,0,101.47-20.34,144.87,123.23c8.99,29.75,8.79,61.53-0.23,91.27L1281.51,782.77z"></path><path fill="none" stroke="#ffc77d" stroke-linecap="round" stroke-miterlimit="10" stroke-width="3" d="M1282.09,854.48c0,0,17.38-186.28-87.38-284.72"></path><path fill="#ffe5b8" d="M1320.32,792.62c0,0-25.05-22.19-27.96-58.78c-2.92-36.59,17.53-209.45,146.18-246.51   c0,0-26.97,136.85-66.83,229.82c-9.58,22.35-22.69,43-38.79,61.21L1320.32,792.62z"></path><path fill="none" stroke="#ffc77d" stroke-linecap="round" stroke-miterlimit="10" stroke-width="3" d="M1322.62,886.56c0,0-26.77-165.94,69.63-346.25"></path><path fill="#ffe5b8" d="M1351.63,802.75c0,0,36.88-5.61,57.02-20.55c31.72-23.53,122.01-121.89,210.74-120.66   c0,0-58.11-45.79-124.96-36.06S1333.97,704.98,1351.63,802.75z"></path><path fill="none" stroke="#ffc77d" stroke-linecap="round" stroke-miterlimit="10" stroke-width="3" d="M1333.91 854.47c0 0 46.26-186.72 218.28-210.68M1428.06 739.88c-39.88-2.14-53.09 22.76-53.09 22.76s8.08-22.34 3.75-44.82"></path><path fill="none" stroke="#ffc77d" stroke-linecap="round" stroke-miterlimit="10" stroke-width="3" d="M1424.38 678.45c0 0-.11 19.78-8.19 35.71 0 0 17.46-8.29 55.85-9.83M1482.07 639.98c0 0-5.6 18.79-19.61 36.56 0 0 18.51-8.16 54.84-4.38M1307.17 697.07c0 0 14.22 20.75 17.45 53.38 0 0 13.25-27.36 35.16-36.82M1325.37 624.81c0 0 14.17 20.04 17.23 38.83 0 0 16.17-13.99 44.24-20.81M1355.03 570.42l8.82 30.82c0 0 22.96-18.51 39.34-25.2M1197.51 594.31l32.2 17.74c0 0 1.13-15.95 10.83-24.7M1218.55 652.94c0 0 18.56-3.4 35.89 7.46 0 0 2.2-15.51 13.73-24.71M1235.45 705.29c0 0 26.53-.58 37.5 17.28 0 0 3.69-17.02 16.18-22.95"></path><path fill="#efefef" d="M1539.73,409.05l-311.89,36.49c-7.07,0.83-13.47-4.23-14.29-11.3l-23.39-199.96     c-0.83-7.07,4.23-13.47,11.3-14.29l311.89-36.49c7.07-0.83,13.47,4.23,14.29,11.3l23.39,199.96     C1551.86,401.82,1546.8,408.22,1539.73,409.05z"></path><line x1="1191.33" x2="1528.82" y1="244.34" y2="204.86" fill="none" stroke="#000" stroke-miterlimit="10"></line><line x1="1251.44" x2="1267.69" y1="271.84" y2="410.75" fill="none" stroke="#4bb9ef" stroke-linecap="round" stroke-miterlimit="10" stroke-width="5"></line><line x1="1255.69" x2="1506.52" y1="402.47" y2="373.12" fill="none" stroke="#4bb9ef" stroke-linecap="round" stroke-miterlimit="10" stroke-width="5"></line><rect width="38.52" height="97.8" x="1288.31" y="298.34" fill="#4bb9ef" opacity=".23" transform="rotate(-6.898 1308.096 347.344)"></rect><rect width="38.52" height="45.85" x="1291.43" y="350.11" fill="#4bb9ef" transform="rotate(-6.898 1311.218 373.142)"></rect><rect width="38.52" height="71.54" x="1335.03" y="319.04" fill="#4bb9ef" opacity=".23" transform="rotate(-6.898 1354.835 354.915)"></rect><rect width="38.52" height="35.77" x="1337.18" y="354.68" fill="#4bb9ef" transform="rotate(-6.898 1356.985 372.678)"></rect><rect width="38.52" height="91.69" x="1380.34" y="293.33" fill="#4bb9ef" opacity=".23" transform="rotate(-6.898 1400.16 339.276)"></rect><rect width="38.52" height="71.54" x="1381.55" y="313.41" fill="#4bb9ef" transform="rotate(-6.898 1401.372 349.282)"></rect><rect width="38.52" height="129.42" x="1425.07" y="250.05" fill="#4bb9ef" opacity=".23" transform="rotate(-6.898 1444.909 314.85)"></rect><rect width="38.52" height="108.24" x="1426.34" y="271.16" fill="#4bb9ef" transform="rotate(-6.898 1446.182 325.369)"></rect><circle cx="1210.73" cy="231.08" r="4.38" fill="#4bb9ef"></circle><circle cx="1225.82" cy="229.25" r="4.38" fill="#4bb9ef"></circle><circle cx="1240.91" cy="227.42" r="4.38" fill="#4bb9ef"></circle><g><path fill="#bdd6e5" d="M603.44,782.6c0,0,38.03-8.7,45.18-56.24c7.15-47.54,31.28-32.25,35.75-76.09   c4.47-43.83-10.72-75.34,6.26-110.53c16.98-35.18-8.72-65.57-33.85-44.12c-25.13,21.45-27.21,56.94-49.41,72.26   c-22.19,15.32-21.73,58.65-12.36,82.39C607.68,682.4,554.65,709,603.44,782.6z"></path><path fill="none" stroke="#7ab5d3" stroke-linecap="round" stroke-miterlimit="10" stroke-width="3" d="M602.04,867.93c0,0-6.04-227.51,50.09-334.18"></path><path fill="#bdd6e5" d="M570.84,824.79c0.05-0.05,0.03-53.54-48.23-64.9s-40.21-55.8-82.21-59.05c-42-3.25-82.5,10.01-109.92,8.16   c-58.68-3.96-57.19,52.26,0,60.64s61.66,40.44,121.53,45.86C511.89,820.91,544,850.12,570.84,824.79z"></path><path fill="none" stroke="#7ab5d3" stroke-linecap="round" stroke-miterlimit="10" stroke-width="3" d="M341.02,735c0,0,149.43,0,315.75,160.99"></path><path fill="#bdd6e5" d="M568.82,783.26c0,0,36.31-21.8,9.2-55.84s0.74-85.69-42.74-111.08c-43.48-25.39-78.2-20.71-100.18-55.92   c-21.98-35.21-83-45.43-91.98-19.64c-5.93,17.04,69.32,47.52,80.77,96.95s34.73,64.92,73.78,89.3   C536.72,751.41,529.52,781.03,568.82,783.26z"></path><path fill="none" stroke="#7ab5d3" stroke-linecap="round" stroke-miterlimit="10" stroke-width="3" d="M395.09,564.69c0,0,136.3,61.57,224.3,353.66"></path></g><path fill="#dbf998" d="M1392.3,932.61H527.39c2.59-22.15,11.47-45.61,25.16-67.63c42.39-68.21,130.88-122.5,221.17-80.74  c37.7,17.44,69.73,30.65,99.54,39.37c79.95,23.38,144,14.54,259.01-31.21c7.51-2.98,14.82-5.56,21.95-7.74  c164.43-50.51,227.47,104.33,235.19,125.35c0.56,1.52,0.82,2.34,0.82,2.34S1391.86,920.6,1392.3,932.61z"></path><path fill="#e4ffb0" d="M1439.48,932.61h-972.1c17.5-25.45,47.09-52.43,85.18-67.63c36.9-14.74,81.78-18.43,131.38,1.02  c96.85,38,132.84,3.84,189.33-42.39c15.43-12.63,32.4-26.16,52.55-39.37c73-47.82,171.38-34.02,228.4,0.42  c16.37,9.87,29.32,21.44,37.3,33.74c39.91,61.54,73.28,88.6,176.94,89.79c7.46,0.08,14.43,0.72,20.94,1.82  C1410.48,913.56,1426.82,921.98,1439.48,932.61z"></path><polyline fill="none" stroke="#050505" stroke-linecap="round" stroke-miterlimit="10" stroke-width="4" points="407.57 932.61 467.37 932.61 527.39 932.61 1392.3 932.61 1439.48 932.61 1511.44 932.61"></polyline><g><path fill="#eac07d" d="M578.24,220.71l148.58,27.84c4.53,0.85,7.51,5.21,6.67,9.74l-36.64,195.52c-0.85,4.53-5.21,7.51-9.74,6.67   l-148.58-27.84c-4.53-0.85-7.51-5.21-6.67-9.74l36.64-195.52C569.35,222.85,573.71,219.86,578.24,220.71z"></path><path fill="#efefef" d="M717.83,262.1l-24.75,132.09l-0.01,0.01l-9.44,50.4c-0.22,1.16-1.35,1.94-2.52,1.72l-74.88-14.04l-10.1-1.89     l-0.01,0c-0.01-0.01-0.01-0.01-0.01-0.01l-46.88-8.78c-1.17-0.22-1.95-1.35-1.73-2.52l34.2-182.51c0.22-1.17,1.35-1.94,2.52-1.72     l131.89,24.71C717.28,259.8,718.05,260.93,717.83,262.1z"></path><path fill="none" stroke="#000" stroke-linecap="round" stroke-linejoin="round" stroke-miterlimit="10" stroke-width="3" d="M684.19,267.66l-69.76-13.07c-4.68-0.88-7.77-5.38-6.89-10.07l1.97-10.53l86.72,16.25l-1.97,10.53   C693.38,265.45,688.87,268.54,684.19,267.66z"></path><path fill="#e0dfde" d="M693.07,394.2l-9.44,50.4c-0.22,1.16-1.35,1.94-2.52,1.72l-74.88-14.04c14.92,1.74,42.37,0.54,54.29-28.28   C660.52,404.01,684.97,411.43,693.07,394.2z"></path><rect width="11.56" height="11.56" x="588.87" y="264.67" fill="none" stroke="#c1c1c1" stroke-miterlimit="10" transform="rotate(10.454 594.532 270.424)"></rect><rect width="11.56" height="11.56" x="582.18" y="300.94" fill="none" stroke="#c1c1c1" stroke-miterlimit="10" transform="rotate(10.454 587.84 306.685)"></rect><rect width="11.56" height="11.56" x="575.48" y="337.21" fill="none" stroke="#c1c1c1" stroke-miterlimit="10" transform="rotate(10.454 581.147 342.947)"></rect><rect width="11.56" height="11.56" x="568.79" y="373.48" fill="none" stroke="#c1c1c1" stroke-miterlimit="10" transform="rotate(10.454 574.454 379.208)"></rect><line x1="654.14" x2="696.91" y1="276.66" y2="284.55" fill="none" stroke="#c1c1c1" stroke-linecap="round" stroke-miterlimit="10" stroke-width="3"></line><line x1="609.32" x2="644.79" y1="268.38" y2="274.93" fill="none" stroke="#c1c1c1" stroke-linecap="round" stroke-miterlimit="10" stroke-width="3"></line><line x1="607.61" x2="695.2" y1="277.62" y2="293.79" fill="none" stroke="#c1c1c1" stroke-linecap="round" stroke-miterlimit="10" stroke-width="3"></line><line x1="688.6" x2="693.5" y1="302.12" y2="303.02" fill="none" stroke="#c1c1c1" stroke-linecap="round" stroke-miterlimit="10" stroke-width="3"></line><line x1="675.08" x2="679.99" y1="373.53" y2="374.44" fill="none" stroke="#c1c1c1" stroke-linecap="round" stroke-miterlimit="10" stroke-width="3"></line><line x1="625.64" x2="680.16" y1="290.5" y2="300.56" fill="none" stroke="#c1c1c1" stroke-linecap="round" stroke-miterlimit="10" stroke-width="3"></line><line x1="605.91" x2="617.2" y1="286.86" y2="288.94" fill="none" stroke="#c1c1c1" stroke-linecap="round" stroke-miterlimit="10" stroke-width="3"></line><line x1="647.38" x2="690.15" y1="313.27" y2="321.16" fill="none" stroke="#c1c1c1" stroke-linecap="round" stroke-miterlimit="10" stroke-width="3"></line><line x1="602.56" x2="638.03" y1="304.99" y2="311.54" fill="none" stroke="#c1c1c1" stroke-linecap="round" stroke-miterlimit="10" stroke-width="3"></line><line x1="600.86" x2="688.45" y1="314.23" y2="330.4" fill="none" stroke="#c1c1c1" stroke-linecap="round" stroke-miterlimit="10" stroke-width="3"></line><line x1="618.88" x2="673.4" y1="327.11" y2="337.17" fill="none" stroke="#c1c1c1" stroke-linecap="round" stroke-miterlimit="10" stroke-width="3"></line><line x1="599.15" x2="610.44" y1="323.47" y2="325.55" fill="none" stroke="#c1c1c1" stroke-linecap="round" stroke-miterlimit="10" stroke-width="3"></line><line x1="640.95" x2="683.72" y1="348.13" y2="356.02" fill="none" stroke="#c1c1c1" stroke-linecap="round" stroke-miterlimit="10" stroke-width="3"></line><line x1="596.13" x2="631.6" y1="339.86" y2="346.4" fill="none" stroke="#c1c1c1" stroke-linecap="round" stroke-miterlimit="10" stroke-width="3"></line><line x1="594.43" x2="682.02" y1="349.09" y2="365.26" fill="none" stroke="#c1c1c1" stroke-linecap="round" stroke-miterlimit="10" stroke-width="3"></line><line x1="634.13" x2="676.9" y1="385.08" y2="392.97" fill="none" stroke="#c1c1c1" stroke-linecap="round" stroke-miterlimit="10" stroke-width="3"></line><line x1="589.31" x2="624.78" y1="376.81" y2="383.35" fill="none" stroke="#c1c1c1" stroke-linecap="round" stroke-miterlimit="10" stroke-width="3"></line><line x1="587.61" x2="675.2" y1="386.05" y2="402.21" fill="none" stroke="#c1c1c1" stroke-linecap="round" stroke-miterlimit="10" stroke-width="3"></line><line x1="612.45" x2="666.97" y1="361.97" y2="372.03" fill="none" stroke="#c1c1c1" stroke-linecap="round" stroke-miterlimit="10" stroke-width="3"></line><line x1="592.72" x2="604.01" y1="358.33" y2="360.42" fill="none" stroke="#c1c1c1" stroke-linecap="round" stroke-miterlimit="10" stroke-width="3"></line><path fill="#ff6700" d="M588.42 266.9l6.57 6.17-2.43.55c.44-.89.87-1.48 1.37-2.14.49-.63 1.02-1.23 1.58-1.78 1.11-1.11 2.34-2.07 3.62-2.92 1.3-.82 2.65-1.54 4.05-2.11.69-.31 1.41-.53 2.11-.79.72-.23 1.44-.42 2.15-.63.12-.03.24.03.28.15.03.11-.02.22-.12.27l-.02.01c-.67.31-1.35.59-2 .91-.64.36-1.3.66-1.92 1.05-1.25.74-2.41 1.6-3.5 2.52-1.07.95-2.04 1.98-2.88 3.09-.42.55-.8 1.13-1.13 1.73-.32.57-.65 1.25-.79 1.72l-.67 2.2-1.75-1.65-6.57-6.17c-.6-.57-.63-1.52-.07-2.12C586.87 266.36 587.82 266.33 588.42 266.9zM581.37 305.15l6.57 6.17-2.43.55c.44-.89.87-1.48 1.37-2.14.49-.63 1.02-1.23 1.58-1.78 1.11-1.11 2.34-2.07 3.62-2.92 1.3-.82 2.65-1.54 4.05-2.11.69-.31 1.41-.53 2.11-.79.72-.23 1.44-.42 2.15-.63.12-.03.24.03.28.15.03.11-.02.22-.12.27l-.02.01c-.67.31-1.35.59-2 .91-.64.36-1.3.66-1.92 1.05-1.25.74-2.41 1.6-3.5 2.52-1.07.95-2.04 1.98-2.88 3.09-.42.55-.8 1.13-1.13 1.73-.32.57-.65 1.25-.79 1.72l-.67 2.2-1.75-1.65-6.57-6.17c-.6-.57-.63-1.52-.07-2.12C579.81 304.61 580.76 304.58 581.37 305.15zM575.29 338.07l6.57 6.17-2.43.55c.44-.89.87-1.48 1.37-2.14.49-.63 1.02-1.23 1.58-1.78 1.11-1.11 2.34-2.07 3.62-2.92 1.3-.82 2.65-1.54 4.05-2.11.69-.31 1.41-.53 2.11-.79.72-.23 1.44-.42 2.15-.63.12-.03.24.03.28.15.03.11-.02.22-.12.27l-.02.01c-.67.31-1.35.59-2 .91-.64.36-1.3.66-1.92 1.05-1.25.74-2.41 1.6-3.5 2.52-1.07.95-2.04 1.98-2.88 3.09-.42.55-.8 1.13-1.13 1.73-.32.57-.65 1.25-.79 1.72l-.67 2.2-1.75-1.65-6.57-6.17c-.6-.57-.63-1.52-.07-2.12C573.74 337.53 574.69 337.5 575.29 338.07zM568.23 376.31l6.57 6.17-2.43.55c.44-.89.87-1.48 1.37-2.14.49-.63 1.02-1.23 1.58-1.78 1.11-1.11 2.34-2.07 3.62-2.92 1.3-.82 2.65-1.54 4.05-2.11.69-.31 1.41-.53 2.11-.79.72-.23 1.44-.42 2.15-.63.12-.03.24.03.28.15.03.11-.02.22-.12.27l-.02.01c-.67.31-1.35.59-2 .91-.64.36-1.3.66-1.92 1.05-1.25.74-2.41 1.6-3.5 2.52-1.07.95-2.04 1.98-2.88 3.09-.42.55-.8 1.13-1.13 1.73-.32.57-.65 1.25-.79 1.72l-.67 2.2-1.75-1.65-6.57-6.17c-.6-.57-.63-1.52-.07-2.12C566.68 375.78 567.63 375.75 568.23 376.31z"></path></g><g><path fill="#a3794d" d="M973.07,247.66c-0.88,0.64-2.62,1.46-5.65,2.5c-1.02,0.35-2.08,0.59-3.15,0.7c-5.99,0.73-12.4-1.8-16.14-5.34   c-4.58-4.32-5.21-10.13,3.69-13.3c0.54-0.19,1.08-0.36,1.59-0.51c6.77-1.94,10.49,0.24,12.53,3.38c2.73,4.2,2.44,10.09,2.44,10.09   s2.51,0.05,4.11,0.52C973.73,246.05,974.44,246.65,973.07,247.66z"></path><path fill="#846040" d="M973.07,247.66c-0.88,0.64-2.62,1.46-5.65,2.5c-1.02,0.35-2.08,0.59-3.15,0.7c-5.99,0.73-12.4-1.8-16.14-5.34   l-0.45-0.83c0.28,0.21,5.74,4.17,12.42,1.21c6.81-3.02,5.84-10.7,5.82-10.8l0.01,0c2.73,4.2,2.44,10.09,2.44,10.09   s2.51,0.05,4.11,0.52L973.07,247.66z"></path><path fill="#a3794d" d="M978.81,337.69l-44.09-5.14l-8.04-26.14l-2.33-7.56c0,0-1.62-18.57,18.78-25.2   c20.39-6.63,1.32-26.64,23.98-25.88c0,0,2.59-10.47,17.49-5.49c3.07,1.03,5.78,2.64,8.3,4.56c1.74,1.33,3.39,2.81,5.02,4.35   c0.02,0.01,0.03,0.03,0.04,0.04l0,0.01c7.39,7.01,14.13,15.22,25.65,16.13c17.73,1.4,31.11,3.61,37.63,30.94   C1067.78,325.63,978.81,337.69,978.81,337.69z"></path><path fill="#b7885e" d="M967.11,247.77c-14.9,1.94-1.55,19.73-17.81,27.77c-16.25,8.04-12.67,20.58-12.67,20.58s-5.8,6.21-9.96,10.29   l-2.33-7.56c0,0-1.62-18.57,18.78-25.2C963.52,267.02,944.45,247.01,967.11,247.77z"></path><path fill="#846040" d="M1028.33,288.29c0,0-14.97,4.7-27.81-12.33c-12.84-17.02-26.36-6.35-26.36-6.35s-8.62,28.15-27.48,29.43   c-18.86,1.29,32.19,15.65,32.19,15.65s29.14,3.62,30.08,3.25S1028.33,288.29,1028.33,288.29z"></path><path fill="#ffc7b6" d="M1019.67,288.75l-6.66,20.52c0,0-5.21,3.14-10.93,6.56c-6.68,3.98-14.04,8.3-14.57,8.37   c-0.96,0.13-36.87-11.76-36.87-11.76l1.45-16.1c0,0,1.78,0.37,4.6,0.67c4.46,0.46,11.52,0.71,18.25-1.07c0,0,0.3-6.06-3.48-15.07   c-0.02-0.03-0.03-0.06-0.04-0.1c-0.01-0.01-0.02-0.03-0.02-0.03c-0.99-2.34-2.25-4.88-3.87-7.56l19.44-2.53   c0,0,2.14,13.26,12.62,18.32C1004.36,291.26,1010.86,291.87,1019.67,288.75z"></path><path fill="#e2a698" d="M999.6,288.96c-20.83,3.98-27.42-6.81-28.13-8.1c-0.02-0.04-0.03-0.08-0.04-0.1   c-0.01-0.01-0.02-0.03-0.02-0.03l3.72-8.55l11.86-1.54C986.97,270.65,989.11,283.91,999.6,288.96z"></path><path fill="#b7885e" d="M992.91,246.84c-11.62-7.15-25.8,0.93-25.8,0.93s2.59-10.47,17.49-5.49   C987.68,243.31,990.39,244.92,992.91,246.84z"></path><path fill="#f2b1a5" d="M995.13,312.21l-38.44-15.2c4.46,0.46,11.52,0.71,18.25-1.07C974.94,295.93,991.56,305.12,995.13,312.21z"></path><polygon fill="#ffc7b6" points="946.66 732.08 899.78 753.49 887.46 759.12 857.03 773.01 859.78 784.19 854.77 790.01 840.28 782.85 830.58 728.79 852.28 714.76 852.29 714.75 879.78 696.98 915.87 673.64"></polygon><polygon fill="#f2b1a5" points="899.78 753.49 887.46 759.12 852.28 714.76 852.29 714.75 879.78 696.98"></polygon><polygon fill="#ffc7b6" points="913.7 623.5 887.56 682.81 838.32 657.68 816.36 646.48 801.43 638.86 794.51 647.8 786.99 647.49 783.65 632 819.29 591.56 853.74 603.21 865.34 607.14"></polygon><polygon fill="#f2b1a5" points="865.34 607.14 838.32 657.68 816.36 646.48 852.35 604.36 853.74 603.21"></polygon><path fill="#fa0" d="M836.11,600.21l-42.96,32.46c0,0,0,0.01,0.01,0.02c0.3,0.68,6.35,14.98-6.1,33.59   c-7.97,11.87-19.22,10.86-26.59,8.43c-4.47-1.48-7.51-3.5-7.51-3.5l4.51-10.24l17.06-38.7l16.95-17.91l10.19-10.78L797,591.8   l-7.75-2.97l5.97-13.54l39.9,17.58C838.19,594.11,838.74,598.23,836.11,600.21z"></path><path fill="#606060" d="M760.46,674.71l31-70.35l-16.95,17.91l-21.57,48.94C752.95,671.21,755.99,673.23,760.46,674.71z"></path><polygon fill="#606060" points="802.8 578.64 795.22 575.3 789.25 588.84 797 591.8"></polygon><path fill="#fa0" d="M859.7,828.42c-4.01,2.64-7.55,3.79-7.55,3.79l-6.52-12.38l-18.89-35.84l-3.57-24.88l-2.15-14.96l-4.37,2.59   l-7.27,4.31l-7.03-13.34l39.31-20.72c2.93-1.68,6.57,0.49,6.48,3.85l-1.3,54.87c0,0,0,0,0.01,0.01c0.01,0,0.02,0,0.04,0   c0.93,0.26,16.01,4.58,22.92,26.14C874.25,815.73,866.31,824.07,859.7,828.42z"></path><path fill="#606060" d="M859.7,828.42l-36.53-69.3l3.57,24.88l25.41,48.21C852.15,832.2,855.69,831.06,859.7,828.42z"></path><polygon fill="#606060" points="809.82 733.77 802.35 737.71 809.38 751.05 816.65 746.74"></polygon><path fill="#34a4e8" d="M1089.67,690.36c-44.77,22.51-124.41,51.78-169.67,68.03c-14.47,5.19-23.36,8.91-23.36,8.91l-35.65-75.36   l22.46-12.49l123.85-68.83l-56.46-166.14l114.27,0.71l16.57,30.54c0,0,27.93,60.8,41.76,110.16   C1137.27,635.23,1140.65,664.73,1089.67,690.36z"></path><path fill="#4ab2ff" d="M918.3,759c-14.36,5.49-23.36,8.91-23.36,8.91l-33.96-75.97l22.46-12.49L918.3,759z"></path><path fill="#d38700" d="M934.93,453.21c0,0-8.69,49.74,152.3,25.83l-75.18-32.73L934.93,453.21z"></path><path fill="#4ab2ff" d="M1041.75,750.63c-46.28,14.52-146.61-43.62-191.34-71.83c-13.8-8.7-22.31-14.56-22.31-14.56l33.19-67.83   c7.49,2.81,14.81,5.69,21.9,8.6c51.21,20.96,90.4,42.79,91.09,43.17c-0.28-0.38-9.64-12.99-27.17-65.69   c-1.59-4.79-3.26-9.91-4.98-15.38c-24.32-77.04,1.77-115.89,1.77-115.89c1.49-2.79,3.97-5,7.21-6.7   c27.38-14.43,109.16,6.67,109.16,6.67S1102.61,731.54,1041.75,750.63z"></path><path fill="#afe1f9" d="M978.48,450.4l-6.38,13.3c0,0-49.08,44.06-24.52,119.46l-0.46-0.66c-1.59-4.79-3.26-9.91-4.98-15.38   c-24.32-77.04,1.77-115.89,1.77-115.89c1.49-2.79,3.97-5,7.21-6.7L978.48,450.4z"></path><path fill="#d18600" d="M888.17,349.57c0,0-5.7,39.79,40.85,81.02l10.73-59.39C939.75,371.2,932.25,333.78,888.17,349.57z"></path><path fill="#ffc7b6" d="M942.57,375.11c0,0-2.19,20.18-9.77,39.02c-9.82,24.37-28.68,46.47-63.53,19.74   c-0.93-0.72-1.87-1.46-2.82-2.24c-0.01-0.01-0.02-0.01-0.02-0.02l-0.01-0.01c-3.16-2.6-6.44-5.59-9.86-9l-0.01,0   c-0.03-0.03-0.05-0.06-0.09-0.09c-2.78-2.78-5.64-5.85-8.6-9.21c-6.93-7.87-13.11-15.8-18.62-23.57c-0.02-0.01-0.03-0.03-0.04-0.05   c-21.7-30.62-32.88-58.78-37.33-71.75c-1.26-3.66-1.98-6.11-2.25-7.07c-0.08-0.3-0.13-0.44-0.13-0.44   c10.21-1.33,26.63-17.55,26.63-17.55c1.38,1.94,2.98,4.02,4.73,6.2c0.63,0.77,1.27,1.55,1.94,2.35   c7.95,9.54,18.67,20.74,28.95,31.03c0.06,0.06,0.13,0.13,0.2,0.2c5.12,5.12,10.12,10,14.63,14.34l0.01,0   c0.01,0.01,0.03,0.03,0.04,0.04c0.03,0.03,0.08,0.07,0.14,0.13c0.38,0.37,0.76,0.72,1.13,1.08c0.16,0.15,0.32,0.31,0.49,0.48   c9.61,9.2,16.51,15.5,16.51,15.5l8.42-14.86l11.29,5.91L942.57,375.11z"></path><path fill="#f2b1a5" d="M932.8,414.13c-9.82,24.37-28.68,46.47-63.53,19.74c7.88,5.47,36.57,27.09,56.27-28.2L932.8,414.13z"></path><path fill="#d18600" d="M1062.1,278.17c0,0,31.69,15.65,46.68,70.05l-40.27,5.24L1062.1,278.17z"></path><path fill="#ffc7b6" d="M1152.05,311.87c-18.3,17.03-48.05,31.36-48.05,31.36l-24.14,3.14l-22.83-58.97l1.92-1.31l5.12-3.5   c2.45-0.7,21.89-5.88,21.89-5.88s-6.77-5.99-16.32-16.93c-10.09-11.54-23.28-28.59-34.89-49.88c0,0,2.47-1.25,5.88-3.64   c0.15-0.1,0.3-0.21,0.46-0.32c5.17-3.68,12.22-9.83,16.17-18.08l0.01,0.01c0.01,0,0.01,0,0.01,0.01   c0.52,0.42,14.84,12.02,33.07,27.21c24.82,20.69,56.87,48.03,71.05,62.78C1171.27,288.12,1164.17,300.59,1152.05,311.87z"></path><path fill="#f2b1a5" d="M1072.16 298.48l-5.02 3.26-8.18-15.65 5.12-3.5c2.45-.7 21.89-5.88 21.89-5.88C1069.77 286.38 1072.16 298.48 1072.16 298.48zM866.59 346.97c.01.01.03.03.04.04C866.59 346.98 866.58 346.97 866.59 346.97L866.59 346.97zM891.53 385.37c0 0-.09-.2-.21-.56C891.4 385 891.46 385.18 891.53 385.37zM904.61 355.25c-.09 2.74-1.36 5.21-3.75 7.71-9.64 10.1-8.79 17.03-8.06 19.27-8.87-18.03-19.98-29.08-24.41-33.53 9.61 9.2 16.51 15.5 16.51 15.5l8.42-14.86L904.61 355.25z"></path><path fill="#fa0" d="M1065.34,363.33c35,56.25,21.89,115.7,21.89,115.7s-18.18,9.65-59.74,0.31c-4.36-0.97-8.96-2.16-13.84-3.58   c-16.3-4.78-30.18-8.8-41.53-12.05l-0.02-0.01l-2.47-0.7c-3.08-0.88-5.96-1.7-8.63-2.46l-3.86-1.1c-14.64-4.16-22.2-6.23-22.2-6.23   c0.11-0.12,0.21-0.24,0.32-0.36c2.32-2.6,4.29-5.27,5.94-7.94c3.08-4.94,5.1-9.89,6.41-14.41c1.27-4.32,1.89-8.24,2.18-11.39   c0.44-4.73,0.13-7.72,0.13-7.72l-20.9,19.19c0.07-7.9-1.14-15.53-3.2-22.74c-5.31-18.62-16.24-34.44-24.96-44.88   c-7.07-8.47-12.69-13.4-12.69-13.4c17.7-10.87,16.43-37.73,29.15-46.96c4.07-2.95,8.89-4.72,13.89-5.71   c1.8-0.35,3.62-0.6,5.43-0.78c8.28-0.78,16.45,0.17,21.92,1.12c4.1,0.72,6.69,1.44,6.69,1.44c18.34,3.79,34.33,11.84,34.33,11.84   l8.8-15.12c2.35-4.03,6.62-6.54,11.29-6.65c3.08-0.08,5.97-0.24,8.66-0.47c3.92-0.33,7.44-0.79,10.58-1.35   c17.23-3.05,23.19-8.76,23.19-8.76c3.17,7.25,6.58,14.04,10.06,20.3c0.01,0.01,0.01,0.01,0.01,0.01c0.34,0.62,0.68,1.23,1.03,1.83   c0.02,0.03,0.03,0.07,0.05,0.09c0.11,0.18,0.21,0.36,0.31,0.54c6.21,10.88,12.58,20.11,18.16,27.45   c9.72,12.77,17.05,19.81,17.05,19.81C1092.45,359.57,1065.34,363.33,1065.34,363.33z"></path><path fill="#ffc7b6" d="M968.99 254.36c-3.34 2.35-10.59 16.98 2.41 26.37 18.47 13.34 24.41-9.26 19.1-18.46C985.18 253.08 975.33 249.91 968.99 254.36zM1057.27 187.85l-1.4 27.21c0 0 0 0-13.2-3.23-2.23-.54-4.84-1.18-7.9-1.93-2.01-.49-3.74-1.05-5.22-1.67-.02-.01-.05-.02-.07-.03-.25-.1-.5-.2-.74-.31-.07-.04-.11-.06-.11-.06-7.92-3.6-7.97-8.72-6.86-12.09-5.62 9.24-10.33 2.04-10.33 2.04-7.09-8.96-2.03-25.77 16.12-28.13C1045.69 167.28 1057.06 186.23 1057.27 187.85zM823.98 305.92l-.86.4-21.41 9.8-6.92 3.17c0 0-1.14-.42-2.91-1.35-4.55-2.38-13.26-8.09-17.47-18.51-.03-.06-.04-.09-.04-.09-1.55-3.87-2.48-8.37-2.35-13.6.6-24.9 32.7-20.36 29.87-10.2-1.04 3.74-1.7 6.11-2.12 7.6 1.09-2 3.84-3.73 10.79 1 2.53 1.73 4.61 3.78 6.29 5.94 3.11 3.95 4.94 8.22 5.96 11.33C823.69 304.1 823.98 305.92 823.98 305.92z"></path><path fill="#a3794d" d="M991.13,263.59c0,0-15.15,5.15-18.81-3.06c0,0,1.42,10.49-11.06,10.01c-8.07-0.31,1.51-17.5,1.51-17.5   l16.43-4.12l7.58,3.13L991.13,263.59z"></path><path fill="#d38700" d="M965.25,298.68c18.34,3.79,34.33,11.84,34.33,11.84l-11.87,11.02c-5.02,4.66-13.08,3.45-16.51-2.48   l-12.63-21.82C962.66,297.97,965.25,298.68,965.25,298.68z"></path><path fill="#d38700" d="M1028.33,288.28L1028.33,288.28l0.44,18.67c0.19,7.88-7.93,13.24-15.1,9.98l-14.1-6.4l8.8-15.12   c2.35-4.03,6.62-6.54,11.29-6.65C1022.75,288.67,1025.63,288.51,1028.33,288.28z"></path><path d="M1065.34,363.33c35,56.25,21.89,115.7,21.89,115.7s-18.18,9.65-59.74,0.31   c85.82-20.23,21.75-128.99,21.75-128.99c24.84,14.24,45.9-17.55,45.9-17.55c9.72,12.77,13.63,15.42,13.63,15.42   C1092.45,359.57,1065.34,363.33,1065.34,363.33z" opacity=".09"></path><path fill="#ffe2ae" d="M931.21,296.9c-4.51,2.05-10.63,8.39-13.43,27.24c-2.61,17.54-10.43,30.63-16.92,38.83   c-7.07-8.47-12.69-13.4-12.69-13.4c17.7-10.87,16.43-37.73,29.15-46.96C921.39,299.66,926.21,297.89,931.21,296.9z"></path><path d="M1062.1 278.17c3.17 7.25 6.58 14.04 10.06 20.3-9.25-14.87-31.27-11.86-33.25-11.54C1056.14 283.88 1062.1 278.17 1062.1 278.17zM960.56 453.98c-14.92-23.47-2.19-63.21-2.19-63.21-19.36 24.02-32.55 17.07-32.55 17.07 2.06 7.21 3.28 14.84 3.2 22.74l20.9-19.19c0 0 .3 2.99-.13 7.72-.29 3.14-.91 7.07-2.18 11.39-.15.5-.3 1-.47 1.51-.06.2-.13.4-.2.6-.1.31-.21.63-.32.94-.08.24-.17.47-.25.71-.11.31-.23.62-.35.93-.09.23-.17.45-.26.68-.2.49-.4.98-.61 1.47-.1.24-.21.48-.32.71-.14.31-.28.62-.43.94-.11.24-.23.48-.35.72-.17.35-.35.7-.53 1.05-.1.19-.19.39-.3.58-.29.55-.59 1.11-.91 1.66-.04.07-.08.13-.12.2-.3.52-.61 1.04-.93 1.57-1.67 2.71-3.66 5.42-6.02 8.07-.11.12-.21.24-.32.36 0 0 7.56 2.07 22.2 6.23l3.86 1.1 8.63 2.46 2.47.7C971.72 463.54 966.07 461.07 960.56 453.98z" opacity=".09"></path><path fill="#d38700" d="M1001.34,309.59c1.46,3.17,2.66,6.28,3.79,9.48c1.12,3.19,2.12,6.41,2.99,9.67    c0.88,3.25,1.63,6.53,2.23,9.84c0.64,3.3,1.03,6.64,1.37,9.97l-0.53,0.07c-0.62-3.27-1.29-6.53-2.2-9.72    c-0.87-3.2-1.88-6.36-3.02-9.47c-1.13-3.11-2.37-6.18-3.73-9.18c-1.35-2.99-2.83-6-4.41-8.77L1001.34,309.59z"></path><circle cx="1003.62" cy="319.87" r="3.39" fill="#d38700"></circle><path fill="#f2b1a5" d="M1128.44,329.51c22.07-16.96,20.66-30.83,17.44-38.01c-14.68-32.61-36.97-58.62-55.52-76.42   c24.82,20.69,56.87,48.03,71.05,62.78C1171.27,288.12,1166.16,304.18,1128.44,329.51z"></path><path fill="#fcd8d2" d="M801.71 316.11c1.44 10.66 7.18 41.82 27.49 73.57-21.7-30.62-32.88-58.78-37.33-71.75-4.55-2.38-13.26-8.09-17.47-18.51.44.88 4.43 8.3 15.22 11.44 3.24.94 7.09 1.5 11.64 1.38C801.27 312.25 801.37 313.62 801.71 316.11zM856.55 422.59L856.55 422.59c-.03-.03-.06-.06-.1-.09C856.49 422.53 856.52 422.57 856.55 422.59zM1069.65 259.78c-10.09-11.54-23.28-28.59-34.89-49.88-2.01-.49-3.74-1.05-5.22-1.67 1.8.63 6.02 1.45 11.1-1.97.16-.1.3-.21.46-.32 0 0 .43 2.17 1.57 5.89C1045.56 221.27 1053.03 240.69 1069.65 259.78z"></path><path fill="#a3cde2" d="M883.2,605.01c0,0-23.05,44.77-32.78,73.79c-13.8-8.7-22.31-14.56-22.31-14.56l33.19-67.83   C868.78,599.22,876.11,602.11,883.2,605.01z"></path><path d="M787.05 666.28c-7.97 11.87-19.22 10.86-26.59 8.43-4.47-1.48-7.51-3.5-7.51-3.5l4.51-10.24c.52.07 43.01 5.68 35.68-28.3 0 0 0 .01.01.02C793.45 633.38 799.5 647.68 787.05 666.28zM859.7 828.42c-4.01 2.64-7.55 3.79-7.55 3.79l-6.52-12.38c37.29-25.91 1.93-43.77 1.23-44.12-.01-.01-.01-.01-.01-.01l.05.01c.93.26 16.01 4.58 22.92 26.14C874.25 815.73 866.31 824.07 859.7 828.42z" opacity=".15"></path><circle cx="973.88" cy="271.07" r="1.59"></circle><circle cx="983.82" cy="267.9" r="1.59"></circle><path fill="none" stroke="#000" stroke-linecap="round" stroke-miterlimit="10" stroke-width=".5" d="M980.46 271.94c0 0 .42 2.13 3.36 2.83.52.12.06 1.79-.98 2.01M979.64 278.98c.2.28.92 1.23 2.16 1.45 1.49.27 3.12-.63 3.95-2.26"></path><path fill="none" stroke="#050505" stroke-linecap="round" stroke-miterlimit="10" d="M884.9 364.2c0 0 4.91 5.26 7.9 18.03M1078.51 278.69c0 0 11.84-3.48 21.9-1.99"></path><path fill="#ffc7b6" d="M964.29 270.41c0 0-3.29-2.18-3.91 2.25-.62 4.42 4.04 8.42 9.97 7.28V275L964.29 270.41zM991.13 263.59c0 0 .21-4.01 3.86-1.33 3.65 2.68.57 11.08-2.88 11.31S991.13 263.59 991.13 263.59z"></path><polygon fill="#a3794d" points="964.29 270.41 967.11 274.17 968.12 274.17 965.84 267.12"></polygon><path fill="#a3794d" d="M991.13,263.59c0,0-0.47,3.74,0,5.02c0,0-1.28-4.98-4.89-5.76s3.65-2.01,3.65-2.01L991.13,263.59z"></path><path fill="none" stroke="#fff" stroke-linecap="round" stroke-miterlimit="10" d="M959.02,298.04c0,0,10.5,18.76,13.28,22.59c2.78,3.83,9.9,6.02,15.41,0.91"></path><path fill="none" stroke="#050505" stroke-linecap="round" stroke-linejoin="round" stroke-miterlimit="10" d="M958.37 390.77c-.66 2.65-1.55 5.32-2.51 7.83-2.87 7.5-7.47 14.21-13.39 19.64l-13.44 12.34-2.68-2.43M1049.24 350.35c0 0 9.72 3.43 16.1 12.98M1049.24 482.86c-18.87-.31-37.19-7.57-55.29-12.85-18.11-5.28-59.01-16.8-59.01-16.8s-.87 3.61 1.96 9.27M1086.52 321.32c-19.35-27-24.43-43.14-24.43-43.14s1.92.94 4.4 2.73"></path><path fill="none" stroke="#fff" stroke-linecap="round" stroke-miterlimit="10" d="M1013.67,316.93c0,0,13.44,4.03,15.1-9.98"></path><path fill="none" stroke="#050505" stroke-linecap="round" stroke-linejoin="round" stroke-miterlimit="10" d="M932.8 532.58c0 0 22.16 112 59.23 132.85M828.11 664.25c0 0 124.08 78.91 186.06 88.01M1070.63 546.89c0 0 6.12 61.64 2.58 123.28M948.96 296.06c0 0-26.98-3.56-37.47 13.26"></path><line x1="899.16" x2="918.3" y1="717.67" y2="759" fill="none" stroke="#050505" stroke-linecap="round" stroke-linejoin="round" stroke-miterlimit="10"></line><path fill="none" stroke="#050505" stroke-linecap="round" stroke-linejoin="round" stroke-miterlimit="10" d="M791.58 284.85c0 0 18.05-13.77 29.28 14.22M1024.36 205.18c0 0-3.97-3.72-2.6-9.44 1.37-5.71 15.67-4.82 15.67-4.82"></path></g></svg>